<?xml version="1.0" encoding="iso-8859-1"?>
<!-- Generator: Adobe Illustrator 19.0.0, SVG Export Plug-In . SVG Version: 6.00 Build 0)  -->
<svg version="1.1" id="Capa_1" xmlns="http://www.w3.org/2000/svg" xmlns:xlink="http://www.w3.org/1999/xlink" x="0px" y="0px"
	 viewBox="0 0 512 512" style="enable-background:new 0 0 512 512;" xml:space="preserve">
<g>
	<g>
		<g>
			<path d="M160,42.667c-5.896,0-10.667,4.771-10.667,10.667V96c0,5.896,4.771,10.667,10.667,10.667s10.667-4.771,10.667-10.667
				V53.333C170.667,47.438,165.896,42.667,160,42.667z"/>
			<path d="M224,42.667c-5.896,0-10.667,4.771-10.667,10.667V96c0,5.896,4.771,10.667,10.667,10.667s10.667-4.771,10.667-10.667
				V53.333C234.667,47.438,229.896,42.667,224,42.667z"/>
			<path d="M416,256h-10.667v-32c0-5.896-4.771-10.667-10.667-10.667S384,218.104,384,224v32h-10.667
				c-5.896,0-10.667,4.771-10.667,10.667v112c0,38.229-31.104,69.333-69.333,69.333c-36.402,0-66.017-28.298-68.794-64h20.794
				c4.365,0,8.281-2.656,9.906-6.708l28.938-72.333c9.615-24.031,14.49-49.354,14.49-75.271V160
				c0-13.888-8.944-25.617-21.333-30.035V10.667C277.333,4.771,272.563,0,266.667,0H117.333c-5.896,0-10.667,4.771-10.667,10.667
				v119.298C94.277,134.383,85.333,146.112,85.333,160v69.688c0,25.917,4.875,51.24,14.49,75.271l28.938,72.333
				c1.625,4.052,5.542,6.708,9.906,6.708h21.604c2.829,71.039,61.342,128,133.063,128c73.521,0,133.333-59.813,133.333-133.333v-112
				C426.667,260.771,421.896,256,416,256z M128,128V21.333h128V128H128z"/>
			<path d="M416,0h-42.667c-5.896,0-10.667,4.771-10.667,10.667v128c0,5.896,4.771,10.667,10.667,10.667H384v32
				c0,5.896,4.771,10.667,10.667,10.667s10.667-4.771,10.667-10.667v-32H416c5.896,0,10.667-4.771,10.667-10.667v-128
				C426.667,4.771,421.896,0,416,0z"/>
		</g>
	</g>
</g>
<g>
</g>
<g>
</g>
<g>
</g>
<g>
</g>
<g>
</g>
<g>
</g>
<g>
</g>
<g>
</g>
<g>
</g>
<g>
</g>
<g>
</g>
<g>
</g>
<g>
</g>
<g>
</g>
<g>
</g>
</svg>
