<?xml version="1.0" encoding="iso-8859-1"?>
<!-- Generator: Adobe Illustrator 19.0.0, SVG Export Plug-In . SVG Version: 6.00 Build 0)  -->
<svg version="1.1" id="Capa_1" xmlns="http://www.w3.org/2000/svg" xmlns:xlink="http://www.w3.org/1999/xlink" x="0px" y="0px"
	 viewBox="0 0 512 512" style="enable-background:new 0 0 512 512;" xml:space="preserve">
<g>
	<g>
		<path d="M437,241h-30c-8.555,0-15,6.445-15,15v15h-62c-8.276,0-15-6.724-15-15v-15H195v15c0,8.276-6.724,15-15,15h-60v-15
			c0-8.555-6.445-15-15-15H75c-8.555,0-15,6.445-15,15v150c0,8.555,6.445,15,15,15h30c8.555,0,15-6.445,15-15v-15h18.896
			c6.841,0,12.715,5.127,14.941,12.979C166.333,449.33,207.935,481,255,481s88.667-31.67,101.133-76.934
			c2.256-7.939,8.13-13.066,14.971-13.066H392v15c0,8.555,6.445,15,15,15h30c8.555,0,15-6.445,15-15V256
			C452,247.445,445.555,241,437,241z"/>
	</g>
</g>
<g>
	<g>
		<path d="M345,31H165c-16.538,0-30,13.462-30,30s13.462,30,30,30h19.195l19.999,60H180c-8.555,0-15,6.445-15,15v30
			c0,8.555,6.445,15,15,15h150c8.555,0,15-6.445,15-15v-30c0-8.555-6.445-15-15-15h-24.194l19.999-60H345c16.538,0,30-13.462,30-30
			S361.538,31,345,31z M274.19,151h-38.379l-19.995-60h78.369L274.19,151z"/>
	</g>
</g>
<g>
	<g>
		<path d="M15,271c-8.291,0-15,6.709-15,15v90c0,8.291,6.709,15,15,15h15V271H15z"/>
	</g>
</g>
<g>
	<g>
		<path d="M497,271h-15v120h15c8.291,0,15-6.709,15-15v-90C512,277.709,505.291,271,497,271z"/>
	</g>
</g>
<g>
</g>
<g>
</g>
<g>
</g>
<g>
</g>
<g>
</g>
<g>
</g>
<g>
</g>
<g>
</g>
<g>
</g>
<g>
</g>
<g>
</g>
<g>
</g>
<g>
</g>
<g>
</g>
<g>
</g>
</svg>
